<svg width="90" height="120" viewBox="0 0 90 120" fill="none" xmlns="http://www.w3.org/2000/svg">
<path d="M0 15C0 11.0218 1.58035 7.20644 4.3934 4.3934C7.20644 1.58035 11.0218 0 15 0L75 0C78.9782 0 82.7936 1.58035 85.6066 4.3934C88.4196 7.20644 90 11.0218 90 15V116.25C89.9996 116.928 89.8153 117.594 89.4666 118.176C89.118 118.758 88.618 119.234 88.02 119.554C87.422 119.874 86.7484 120.026 86.0708 119.994C85.3933 119.961 84.7372 119.746 84.1725 119.37L45 98.2575L5.8275 119.37C5.26279 119.746 4.60673 119.961 3.92919 119.994C3.25164 120.026 2.578 119.874 1.98 119.554C1.38199 119.234 0.882031 118.758 0.533355 118.176C0.18468 117.594 0.000350403 116.928 0 116.25V15ZM15 7.5C13.0109 7.5 11.1032 8.29018 9.6967 9.6967C8.29018 11.1032 7.5 13.0109 7.5 15V109.245L42.9225 90.63C43.538 90.2204 44.2607 90.0019 45 90.0019C45.7393 90.0019 46.462 90.2204 47.0775 90.63L82.5 109.245V15C82.5 13.0109 81.7098 11.1032 80.3033 9.6967C78.8968 8.29018 76.9891 7.5 75 7.5H15Z" fill="#808080"/>
</svg>
