<svg width="31" height="32" viewBox="0 0 31 32" fill="none" xmlns="http://www.w3.org/2000/svg">
<path d="M30.9499 1.68971C30.8803 1.52782 30.7497 1.39972 30.5863 1.33307C30.4229 1.26641 30.2398 1.26655 30.0765 1.33345C28.1945 2.09237 27.6403 3.17341 27.1069 4.32592C27.1517 4.18672 27.1945 4.04913 27.2351 3.91526C27.5879 2.76809 27.8204 2.01024 29.2229 1.22572C29.2988 1.18408 29.3656 1.12773 29.4194 1.05998C29.4732 0.992226 29.5129 0.914438 29.5361 0.831178C29.5594 0.747919 29.5657 0.660864 29.5548 0.575123C29.5439 0.489381 29.5159 0.40668 29.4725 0.331872C29.3831 0.179765 29.2373 0.0688486 29.0666 0.0230522C28.8959 -0.0227441 28.714 0.000251073 28.5601 0.0870766C26.6932 1.13025 26.3345 2.29983 25.9545 3.53767C25.7059 4.34619 25.4382 5.2155 24.6957 6.23521C24.0789 5.96535 23.6134 5.78349 23.0618 5.91895L21.5984 4.48432C21.0746 3.97083 20.3689 3.68447 19.6346 3.68753C18.8928 3.68753 18.1958 3.97019 17.672 4.48432L0 21.8066L10.3927 21.813L10.3996 32L28.0716 14.6782C28.3284 14.4275 28.5325 14.1281 28.6717 13.7976C28.811 13.4671 28.8827 13.1122 28.8827 12.7536C28.8826 12.3951 28.8108 12.0402 28.6715 11.7097C28.5321 11.3793 28.328 11.0799 28.0711 10.8292L26.6012 9.38875C26.7263 8.89969 26.6173 8.45437 26.4083 7.91358C26.4083 7.91358 26.3516 7.97118 26.2436 8.07197C27.3607 6.93333 27.8503 5.89869 28.2656 4.99791C28.7825 3.87686 29.1235 3.13608 30.5859 2.54569C30.6667 2.51409 30.7404 2.46671 30.8026 2.40632C30.8648 2.34594 30.9143 2.27377 30.9482 2.19405C30.9821 2.11432 30.9997 2.02865 31 1.94205C31.0003 1.85544 30.9832 1.76965 30.9499 1.68971M20.8319 9.25275C20.8875 9.30288 20.95 9.34821 21.0243 9.37808C21.1489 9.4275 21.2854 9.43873 21.4164 9.41032C21.5474 9.38191 21.667 9.31517 21.7598 9.21862C22.1225 9.29367 22.456 9.47099 22.7208 9.72954C22.9875 9.99087 23.1644 10.3167 23.2419 10.6703C23.1439 10.7594 23.0757 10.8764 23.0465 11.0055C23.0174 11.1346 23.0287 11.2695 23.0789 11.3919C23.1094 11.4655 23.1559 11.5263 23.2066 11.5818C23.1192 11.8951 22.9518 12.1805 22.7208 12.41C21.9896 13.1257 20.7164 13.1257 19.9863 12.41C19.8067 12.2359 19.664 12.0275 19.5667 11.7973C19.4694 11.5671 19.4194 11.3197 19.4198 11.0698C19.4193 10.82 19.4692 10.5726 19.5665 10.3424C19.6638 10.1123 19.8066 9.90401 19.9863 9.73007C20.2225 9.50124 20.5137 9.33687 20.8319 9.25275" fill="black"/>
</svg>
